<svg xmlns="http://www.w3.org/2000/svg" viewBox="0 0 512 512">
  <defs>
    <linearGradient id="g" x1="0" x2="1" y1="0" y2="1">
      <stop offset="0" stop-color="#ff8fb4"/>
      <stop offset="1" stop-color="#d92f69"/>
    </linearGradient>
  </defs>
  <rect width="512" height="512" rx="116" fill="url(#g)"/>
  <path d="M256 404C212 367 105 295 105 202c0-58 42-99 94-99 31 0 54 15 72 39 18-24 41-39 72-39 52 0 94 41 94 99 0 93-107 165-151 202l-15 13z" fill="#fff"/>
  <path d="M188 230c17-30 48-50 83-50 26 0 50 11 67 30" fill="none" stroke="#ffd7e5" stroke-width="20" stroke-linecap="round"/>
</svg>
